<svg width="509" height="491" viewBox="0 0 509 491" fill="none" xmlns="http://www.w3.org/2000/svg">
<path d="M339.392 237.624L512 346.744V123.896L339.392 237.624Z" fill="#AEE1E1"/>
<path d="M0 123.896V346.744L172.608 237.624L0 123.896Z" fill="#AEE1E1"/>
<path d="M480 59H32C16.032 59 3.36 70.904 0.959999 86.232L256 254.264L511.04 86.232C508.64 70.904 495.968 59 480 59Z" fill="#AEE1E1"/>
<path d="M310.08 256.952L264.8 286.776C262.112 288.536 259.072 289.4 256 289.4C252.928 289.4 249.888 288.536 247.2 286.776L201.92 256.92L1.024 383.992C3.488 399.192 16.096 411 32 411H480C495.904 411 508.512 399.192 510.976 383.992L310.08 256.952Z" fill="#AEE1E1"/>
</svg>
