<svg width="241" height="241" viewBox="0 0 241 241" fill="none" xmlns="http://www.w3.org/2000/svg">
<path d="M230.341 110.333L130.664 10.6611C124.925 4.91938 115.615 4.91938 109.871 10.6611L89.1749 31.3623L115.429 57.6164C121.531 55.5542 128.528 56.9381 133.39 61.8028C138.282 66.6974 139.653 73.7535 137.539 79.8778L162.846 105.183C168.971 103.071 176.032 104.437 180.921 109.334C187.754 116.167 187.754 127.238 180.921 134.075C174.084 140.91 163.013 140.91 156.173 134.075C151.035 128.933 149.763 121.38 152.369 115.049L128.766 91.4483V153.554C130.431 154.379 132.003 155.477 133.39 156.864C140.222 163.696 140.222 174.767 133.39 181.607C126.557 188.437 115.479 188.437 108.651 181.607C101.819 174.765 101.819 163.694 108.651 156.864C110.341 155.177 112.296 153.9 114.383 153.045V90.3601C112.296 89.5054 110.346 88.2408 108.651 86.5414C103.476 81.3686 102.231 73.7708 104.885 67.4154L79.0033 41.529L10.6537 109.871C4.91191 115.618 4.91191 124.927 10.6537 130.669L110.336 230.344C116.075 236.086 125.382 236.086 131.129 230.344L230.341 131.131C236.083 125.39 236.083 116.075 230.341 110.333Z" fill="#F05133"/>
</svg>
